<svg version="1.2" xmlns="http://www.w3.org/2000/svg" viewBox="0 0 1000 1000" width="1000" height="1000">
	<title>logo svg</title>
	<style>
	</style>
	<path id="WegeInspiracje" fill="#018500" stroke="#028d00" stroke-width="4" aria-label="WegeInspiracje"  d="m108.84 530.24q-2.24 6.16-7.42 6.16q-5.04 0-7.28-5.74q-0.56-1.54-4.62-15.4q-4.06-13.86-7.98-26.04q-3.78-12.32-4.34-12.32q-0.56 0-4.34 12.32q-3.78 12.32-7.7 26.18q-3.92 13.72-4.34 14.84q-2.38 6.16-7.28 6.16q-4.9 0-7.14-5.74q-2.38-7.42-10.5-34.16q-7.98-26.74-12.04-38.78q-6.58-20.3-6.58-23.1q0-2.8 1.4-4.34q1.4-1.68 3.5-1.68q4.2 0 6.16 5.04q0.14 0.28 6.3 22.4q17.92 64.12 19.6 64.12q1.68 0 11.76-37.38q4.06-15.12 4.62-17.08q1.96-7.14 7-7.14q5.18 0 7.14 6.72q0.28 0.84 4.62 16.24q11.2 38.64 12.46 38.64q0.98 0 9.8-32.06q8.82-32.06 14.56-53.9q1.54-5.6 5.74-5.6q4.62 0 4.62 5.6q0 3.36-3.36 14.84q-3.36 11.34-6.16 20.86q-14 47.46-18.2 60.34zm64.54-32.9q9.52 0 15.12-3.22q5.74-3.22 5.74-8.68q0-5.46-3.78-9.38q-3.64-4.06-10.5-4.06q-9.24 0-15.54 7q-6.3 6.86-8.12 16.1q7.7 2.24 17.08 2.24zm5.32-34.44q11.34 0 18.34 6.3q7.14 6.3 7.14 16.38q0 10.08-8.82 15.4q-8.68 5.18-21.42 5.18q-7.28 0-17.78-2.1q0.84 9.8 7.28 16.94q6.58 7 14.56 7q4.76 0 8.82-1.26q4.06-1.4 6.16-2.94q5.6-4.34 7.28-4.34q1.82 0 2.8 1.12q1.12 0.98 1.12 2.52q0 3.92-8.12 8.96q-7.98 5.04-17.36 5.04q-14.56 0-23.1-10.22q-8.54-10.22-9.24-24.64q-7.42-2.24-7.42-7.28q0-2.1 1.12-3.22q1.26-1.26 2.94-1.26q1.68 0 4.2 1.26q3.08-12.6 11.62-20.72q8.68-8.12 19.88-8.12zm89.46 39.34v-21.42q-7.7-8.12-17.08-8.12q-9.24 0-16.24 8.4q-6.86 8.26-6.86 19.74q0 11.34 4.34 18.9q4.34 7.56 11.9 7.56q7.7 0 14.14-7.14q6.44-7.14 9.8-17.92zm-0.28-32.06q0.28-6.58 5.32-6.58q6.44 0 6.44 9.94q0 9.8-2.8 27.58q1.68 17.08 1.68 25.48q0 18.34-8.68 29.54q-8.54 11.06-24.08 11.06q-8.68 0-16.38-3.5q-7.7-3.64-7.7-7.14q0-3.64 3.22-3.64q1.26 0 7.14 2.66q6.02 2.52 13.72 2.52q11.2 0 17.64-8.4q6.44-8.4 6.44-21.7q0-5.46-0.7-10.08q-3.08 7.56-10.08 13.02q-6.86 5.46-14.28 5.46q-7.28 0-12.46-3.22q-5.18-3.22-8.4-8.4q-6.3-10.5-6.3-24.36q0-14 9.38-25.34q9.52-11.48 23.38-11.48q9.66 0 17.5 6.58zm59.08 27.16q9.52 0 15.12-3.22q5.74-3.22 5.74-8.68q0-5.46-3.78-9.38q-3.64-4.06-10.5-4.06q-9.24 0-15.54 7q-6.3 6.86-8.12 16.1q7.7 2.24 17.08 2.24zm5.32-34.44q11.34 0 18.34 6.3q7.14 6.3 7.14 16.38q0 10.08-8.82 15.4q-8.68 5.18-21.42 5.18q-7.28 0-17.78-2.1q0.84 9.8 7.28 16.94q6.58 7 14.56 7q4.76 0 8.82-1.26q4.06-1.4 6.16-2.94q5.6-4.34 7.28-4.34q1.82 0 2.8 1.12q1.12 0.98 1.12 2.52q0 3.92-8.12 8.96q-7.98 5.04-17.36 5.04q-14.56 0-23.1-10.22q-8.54-10.22-9.24-24.64q-7.42-2.24-7.42-7.28q0-2.1 1.12-3.22q1.26-1.26 2.94-1.26q1.68 0 4.2 1.26q3.08-12.6 11.62-20.72q8.68-8.12 19.88-8.12z" />
	<path id="WegeInspiracje" fill="#060706" stroke="#000000" stroke-width="4" aria-label="WegeInspiracje"  d="m400.32 525.76l12.32-0.7q3.22 0 5.04 1.54q1.96 1.4 1.96 3.78q0 2.38-1.96 3.92q-1.96 1.54-5.04 1.54l-18.06-0.84l-18.48 0.7q-7 0-7-5.32q0-5.32 7-5.32q1.54 0 12.74 0.7q0.7-31.5 0.7-43.12q0-11.76-0.7-43.26q-12.32 0.56-12.74 0.56q-6.72 0-6.72-5.18q0-2.52 1.82-3.92q1.82-1.54 4.9-1.54l18.48 0.7q4.76 0 11.06-0.42q6.3-0.42 8.12-0.42q1.96 0 3.92 1.68q2.1 1.54 2.1 3.92q0 2.38-1.96 3.92q-1.96 1.4-4.2 1.4q-2.1 0-13.3-0.7q-0.7 32.2-0.7 43.54q0 11.34 0.7 42.84zm93.1-34.86l-0.7 21.98q0 3.92 0 6.02q0.14 1.96 0.84 4.2q0.84 2.1 1.96 2.66q1.12 0.42 2.24 0.56q1.26 0.14 1.68 0.42q0.56 0.28 0.56 1.12q0 3.64-2.38 6.16q-2.24 2.38-5.32 2.38q-5.32 0-7.42-4.2q-1.96-4.2-1.96-12.32l0.56-25.76q0-9.52-4.06-15.4q-4.06-5.88-11.34-5.88q-7.14 0-13.86 7.98q-6.72 7.98-9.38 18.06l0.42 30.38q0 7.14-5.32 7.14q-6.44 0-6.44-9.8q0-9.94 2.8-27.72q0-5.88-1.26-16.24q-1.12-10.36-1.12-12.74q0-2.52 1.4-4.34q1.54-1.96 4.06-1.96q2.52 0 3.92 1.96q1.54 1.82 1.54 4.2q0 2.38-0.14 5.88q0 3.36 0 5.74q10.22-17.78 25.2-17.78q11.2 0 17.36 7.98q6.16 7.98 6.16 19.32zm69.86 23.94q0 9.52-7.84 15.54q-7.7 6.02-18.62 6.02q-10.78 0-18.76-4.9q-7.98-5.04-7.98-9.94q0-2.1 1.26-3.36q1.26-1.4 2.8-1.4q1.68 0 2.66 0.7q0.98 0.56 2.66 2.38q1.68 1.82 2.94 3.08q1.4 1.26 5.46 2.8q4.2 1.54 7.7 1.54q7.7 0 12.6-3.08q5.04-3.22 5.04-9.24q0-7.28-14-12.18q-5.74-1.96-11.62-4.2q-5.74-2.38-9.8-6.44q-4.06-4.06-4.06-9.66q0-7.56 6.86-13.16q6.86-5.74 16.8-5.74q9.94 0 15.68 3.5q5.88 3.36 5.88 7.14q0 4.62-4.9 4.62q-2.1 0-4.2-1.54q-6.58-4.62-12.6-4.62q-6.02 0-9.8 2.8q-3.78 2.66-3.78 6.3q0 3.5 4.06 6.02q4.06 2.52 9.8 4.62q5.88 2.1 11.76 4.76q5.88 2.52 9.94 7.14q4.06 4.48 4.06 10.5zm45.78 12.46q8.96 0 15.68-8.26q6.86-8.26 6.86-19.32q0-11.2-4.9-19.04q-4.9-7.98-13.3-7.98q-14.7 0-24.22 24.22v22.26q8.4 8.12 19.88 8.12zm-28.56-16.24v-2.66l0.14-5.32v-2.24q0-5.88-1.26-17.22q-1.26-11.34-1.26-13.72q0-2.52 1.4-4.34q1.54-1.96 4.06-1.96q2.52 0 3.92 1.96q1.54 1.82 1.54 4.2q0 2.38-0.14 6.02q0 3.5 0 5.88q4.62-8.54 10.36-13.3q5.74-4.76 14.84-4.76q9.1 0 15.68 5.88q6.58 5.88 9.38 13.58q2.8 7.7 2.8 15.4q0 15.26-9.24 26.6q-9.24 11.34-23.66 11.34q-10.5 0-19.88-6.86q-0.28 16.94-0.28 25.2q0 8.12-1.4 10.36q-1.4 2.1-4.34 2.1q-2.94 0-4.9-2.38q-1.82-2.52-1.82-7.14q0-4.62 0.56-10.92q0.56-6.44 1.68-16.8q1.12-10.5 1.82-18.9zm84.42-77.56q2.94 0 4.34 1.96q1.4 1.82 1.4 4.76q0 2.8-1.96 5.74q-1.96 2.8-4.9 2.8q-2.94 0-4.48-1.96q-1.4-1.96-1.4-5.18q0-3.22 1.96-5.6q2.1-2.52 5.04-2.52zm4.62 37.1l-0.7 29.4l0.7 29.4q0 7-5.32 7q-5.32 0-5.32-7l0.7-29.4l-0.7-29.4q0-7 5.32-7q5.32 0 5.32 7zm31.22 32.34l0.42 26.32q0 7.14-5.32 7.14q-6.44 0-6.44-9.8q0-9.94 2.8-27.72q0-5.88-1.26-16.1q-1.12-10.22-1.12-12.74q0-2.52 1.4-4.48q1.54-1.96 4.06-1.96q2.52 0 3.92 1.96q1.54 1.96 1.54 4.34q0 2.24-0.14 5.88q0 3.5 0 5.88q2.8-7.14 8.68-12.6q6.02-5.46 12.32-5.46q6.3 0 9.66 2.66q3.5 2.52 3.5 5.46q0 2.94-1.54 4.62q-1.54 1.68-4.06 1.68q-2.38 0-5.32-2.52q-2.8-2.66-4.48-2.66q-4.62 0-10.78 9.94q-6.16 9.94-7.84 20.16zm100.1-1.82q0 10.5 1.54 17.22q1.54 6.58 3.64 7.42q0.84 0.42 1.96 0.56q1.26 0.14 1.68 0.42q0.56 0.28 0.56 1.12q0 3.78-2.1 6.16q-1.96 2.38-6.02 2.38q-4.06 0-6.3-5.18q-2.24-5.18-2.24-13.3q-3.5 7.84-10.36 13.16q-6.72 5.32-15.26 5.32q-8.4 0-14.56-5.6q-11.2-10.22-11.2-29.26q0-15.26 8.82-26.6q8.82-11.34 22.68-11.34q10.5 0 18.2 7.14q0-7.14 5.32-7.14q6.44 0 6.44 9.94q0 9.8-2.8 27.58zm-8.12 1.26l-0.7-21.56q-8.4-8.12-17.64-8.12q-9.1 0-15.68 8.26q-6.58 8.26-6.58 19.88q0 11.48 4.2 19.04q4.34 7.42 12.18 7.42q7.84 0 14.28-7q6.44-7 9.94-17.92zm84.42 18.2q3.5 0 3.5 3.78q0 3.64-8.12 8.26q-8.12 4.48-17.08 4.48q-14.7 0-24.5-10.78q-9.8-10.92-9.8-26.32q0-15.4 9.8-26.18q9.94-10.92 26.04-10.92q8.82 0 15.54 4.06q6.86 3.92 6.86 8.12q0 2.24-1.4 3.78q-1.4 1.4-3.22 1.4q-1.82 0-4.2-2.1q-7.28-6.16-14.84-6.16q-9.66 0-16.94 8.12q-7.14 8.12-7.14 19.74q0 11.62 7.28 19.88q7.28 8.26 18.06 8.26q8.26 0 16.1-5.6q2.66-1.82 4.06-1.82zm25.2-87.08q2.94 0 4.34 1.96q1.4 1.82 1.4 4.76q0 2.8-1.96 5.74q-1.96 2.8-4.9 2.8q-2.94 0-4.48-1.96q-1.4-1.96-1.4-5.18q0-3.22 1.96-5.6q2.1-2.52 5.04-2.52zm4.62 37.1l-0.7 32.2l-0.14 30.8q0 12.04-6.16 20.02q-6.02 7.84-11.2 7.84q-3.78 0-3.78-2.66q0-1.96 6.02-7.84q2.38-2.24 4.2-7.14q1.96-5.04 1.96-11.62l-0.14-29.4l-0.7-32.2q0-7 5.32-7q5.32 0 5.32 7zm48.02 26.74q9.52 0 15.12-3.22q5.74-3.22 5.74-8.68q0-5.46-3.78-9.38q-3.64-4.06-10.5-4.06q-9.24 0-15.54 7q-6.3 6.86-8.12 16.1q7.7 2.24 17.08 2.24zm5.32-34.44q11.34 0 18.34 6.3q7.14 6.3 7.14 16.38q0 10.08-8.82 15.4q-8.68 5.18-21.42 5.18q-7.28 0-17.78-2.1q0.84 9.8 7.28 16.94q6.58 7 14.56 7q4.76 0 8.82-1.26q4.06-1.4 6.16-2.94q5.6-4.34 7.28-4.34q1.82 0 2.8 1.12q1.12 0.98 1.12 2.52q0 3.92-8.12 8.96q-7.98 5.04-17.36 5.04q-14.56 0-23.1-10.22q-8.54-10.22-9.24-24.64q-7.42-2.24-7.42-7.28q0-2.1 1.12-3.22q1.26-1.26 2.94-1.26q1.68 0 4.2 1.26q3.08-12.6 11.62-20.72q8.68-8.12 19.88-8.12z" />
</svg>